# Blender v2.68 (sub 0) OBJ File: ''
# www.blender.org
v 0.000000 0.375000 0.125000
v 0.000000 -0.000000 0.125000
v -0.250000 -0.000000 0.125000
v -0.250000 0.375000 0.125000
v 0.000000 0.375000 0.375000
v -0.250000 0.375000 0.375000
v -0.250000 -0.000000 0.375000
v 0.000000 -0.000000 0.375000
v 0.000000 0.375000 0.375000
v 0.000000 0.375000 0.375000
v -0.250000 0.375000 0.375000
v -0.250000 0.375000 0.375000
v -0.250000 -0.000000 0.375000
v -0.250000 -0.000000 0.375000
v 0.000000 0.375000 0.125000
v 0.000000 0.375000 0.125000
v 0.000000 -0.000000 0.375000
v 0.000000 -0.000000 0.375000
v -0.250000 0.375000 0.125000
v -0.250000 0.375000 0.125000
v -0.250000 -0.000000 0.125000
v -0.250000 -0.000000 0.125000
v 0.000000 -0.000000 0.125000
v 0.000000 -0.000000 0.125000
vt 0.187500 0.375000
vt 0.187500 0.187500
vt 0.250000 0.187500
vt 0.250000 0.375000
vt 0.125000 0.375000
vt 0.062500 0.375000
vt 0.062500 0.187500
vt 0.125000 0.187500
vt 0.187500 0.500000
vt 0.125000 0.500000
vt 0.000000 0.187500
vt 0.000000 0.375000
vt 0.062500 0.500000
vn 0.000000 0.000000 -1.000000
vn 0.000000 0.000000 1.000000
vn 1.000000 0.000000 0.000000
vn 0.000000 -1.000000 0.000000
vn -0.999969 0.000000 0.000000
vn -1.000000 0.000000 0.000000
vn 0.000000 1.000000 0.000000
s 1
f 15/1/1 23/2/1 3/3/1
f 15/1/1 3/3/1 20/4/1
f 5/5/2 6/6/2 7/7/2
f 5/5/2 7/7/2 8/8/2
f 1/1/3 10/5/3 17/8/3
f 1/1/3 17/8/3 24/2/3
f 2/9/4 18/1/4 13/5/4
f 2/9/4 13/5/4 21/10/4
f 22/11/5 14/7/6 11/6/5
f 22/11/5 11/6/5 19/12/6
f 9/5/7 16/10/7 4/13/7
f 9/5/7 4/13/7 12/6/7
v 0.250000 1.125000 -0.125000
v 0.250000 0.375000 -0.125000
v -0.250000 0.375000 -0.125000
v -0.250000 1.125000 -0.125000
v 0.250000 1.125000 0.125000
v -0.250000 1.125000 0.125000
v -0.250000 0.375000 0.125000
v 0.250000 0.375000 0.125000
v 0.250000 1.125000 0.125000
v 0.250000 1.125000 0.125000
v -0.250000 1.125000 0.125000
v -0.250000 1.125000 0.125000
v -0.250000 0.375000 0.125000
v -0.250000 0.375000 0.125000
v 0.250000 1.125000 -0.125000
v 0.250000 1.125000 -0.125000
v 0.250000 0.375000 0.125000
v 0.250000 0.375000 0.125000
v -0.250000 1.125000 -0.125000
v -0.250000 1.125000 -0.125000
v -0.250000 0.375000 -0.125000
v -0.250000 0.375000 -0.125000
v 0.250000 0.375000 -0.125000
v 0.250000 0.375000 -0.125000
vt 0.500000 0.375000
vt 0.500000 0.000000
vt 0.625000 0.000000
vt 0.625000 0.375000
vt 0.437500 0.375000
vt 0.312500 0.375000
vt 0.312500 0.000000
vt 0.437500 0.000000
vt 0.562500 0.500000
vt 0.562500 0.375000
vt 0.437500 0.500000
vt 0.250000 0.000000
vt 0.250000 0.375000
vt 0.312500 0.500000
vn 0.999969 0.000000 0.000000
s 1
f 39/14/1 47/15/1 27/16/1
f 39/14/1 27/16/1 44/17/1
f 29/18/2 30/19/2 31/20/2
f 29/18/2 31/20/2 32/21/2
f 25/14/8 34/18/3 41/21/3
f 25/14/8 41/21/3 48/15/3
f 26/22/4 42/23/4 37/18/4
f 26/22/4 37/18/4 45/24/4
f 46/25/5 38/20/6 35/19/6
f 46/25/5 35/19/6 43/26/5
f 33/18/7 40/24/7 28/27/7
f 33/18/7 28/27/7 36/19/7
v 0.250000 0.375000 -0.375000
v 0.250000 0.000000 -0.375000
v 0.000000 0.000000 -0.375000
v 0.000000 0.375000 -0.375000
v 0.250000 0.375000 -0.125000
v 0.000000 0.375000 -0.125000
v 0.000000 0.000000 -0.125000
v 0.250000 0.000000 -0.125000
v 0.250000 0.375000 -0.125000
v 0.250000 0.375000 -0.125000
v 0.000000 0.375000 -0.125000
v 0.000000 0.375000 -0.125000
v 0.000000 0.000000 -0.125000
v 0.000000 0.000000 -0.125000
v 0.250000 0.375000 -0.375000
v 0.250000 0.375000 -0.375000
v 0.250000 0.000000 -0.125000
v 0.250000 0.000000 -0.125000
v 0.000000 0.375000 -0.375000
v 0.000000 0.375000 -0.375000
v 0.000000 0.000000 -0.375000
v 0.000000 0.000000 -0.375000
v 0.250000 0.000000 -0.375000
v 0.250000 0.000000 -0.375000
vt 0.187500 0.375000
vt 0.187500 0.187500
vt 0.250000 0.187500
vt 0.250000 0.375000
vt 0.125000 0.375000
vt 0.062500 0.375000
vt 0.062500 0.187500
vt 0.125000 0.187500
vt 0.187500 0.500000
vt 0.125000 0.500000
vt 0.000000 0.187500
vt 0.000000 0.375000
vt 0.062500 0.500000
s 1
f 63/28/1 71/29/1 51/30/1
f 63/28/1 51/30/1 68/31/1
f 53/32/2 54/33/2 55/34/2
f 53/32/2 55/34/2 56/35/2
f 49/28/3 58/32/3 65/35/3
f 49/28/3 65/35/3 72/29/3
f 50/36/4 66/28/4 61/32/4
f 50/36/4 61/32/4 69/37/4
f 70/38/5 62/34/6 59/33/5
f 70/38/5 59/33/5 67/39/6
f 57/32/7 64/37/7 52/40/7
f 57/32/7 52/40/7 60/33/7
v 0.250000 0.375000 0.125000
v 0.250000 -0.000000 0.125000
v 0.000000 -0.000000 0.125000
v 0.000000 0.375000 0.125000
v 0.250000 0.375000 0.375000
v 0.000000 0.375000 0.375000
v 0.000000 -0.000000 0.375000
v 0.250000 -0.000000 0.375000
v 0.250000 0.375000 0.375000
v 0.250000 0.375000 0.375000
v 0.000000 0.375000 0.375000
v 0.000000 0.375000 0.375000
v 0.000000 -0.000000 0.375000
v 0.000000 -0.000000 0.375000
v 0.250000 0.375000 0.125000
v 0.250000 0.375000 0.125000
v 0.250000 -0.000000 0.375000
v 0.250000 -0.000000 0.375000
v 0.000000 0.375000 0.125000
v 0.000000 0.375000 0.125000
v 0.000000 -0.000000 0.125000
v 0.000000 -0.000000 0.125000
v 0.250000 -0.000000 0.125000
v 0.250000 -0.000000 0.125000
vt 0.187500 0.375000
vt 0.187500 0.187500
vt 0.250000 0.187500
vt 0.250000 0.375000
vt 0.125000 0.375000
vt 0.062500 0.375000
vt 0.062500 0.187500
vt 0.125000 0.187500
vt 0.187500 0.500000
vt 0.125000 0.500000
vt 0.000000 0.187500
vt 0.000000 0.375000
vt 0.062500 0.500000
s 1
f 87/41/1 95/42/1 75/43/1
f 87/41/1 75/43/1 92/44/1
f 77/45/2 78/46/2 79/47/2
f 77/45/2 79/47/2 80/48/2
f 73/41/3 82/45/3 89/48/3
f 73/41/3 89/48/3 96/42/3
f 74/49/4 90/41/4 85/45/4
f 74/49/4 85/45/4 93/50/4
f 94/51/5 86/47/6 83/46/5
f 94/51/5 83/46/5 91/52/6
f 81/45/7 88/50/7 76/53/7
f 81/45/7 76/53/7 84/46/7
v 0.250000 1.625000 -0.250000
v 0.250000 1.125000 -0.250000
v -0.250000 1.125000 -0.250000
v -0.250000 1.625000 -0.250000
v 0.250000 1.625000 0.250000
v -0.250000 1.625000 0.250000
v -0.250000 1.125000 0.250000
v 0.250000 1.125000 0.250000
v 0.250000 1.625000 0.250000
v 0.250000 1.625000 0.250000
v -0.250000 1.625000 0.250000
v -0.250000 1.625000 0.250000
v -0.250000 1.125000 0.250000
v -0.250000 1.125000 0.250000
v 0.250000 1.625000 -0.250000
v 0.250000 1.625000 -0.250000
v 0.250000 1.125000 0.250000
v 0.250000 1.125000 0.250000
v -0.250000 1.625000 -0.250000
v -0.250000 1.625000 -0.250000
v -0.250000 1.125000 -0.250000
v -0.250000 1.125000 -0.250000
v 0.250000 1.125000 -0.250000
v 0.250000 1.125000 -0.250000
vt 0.375000 0.750000
vt 0.375000 0.500000
vt 0.500000 0.500000
vt 0.500000 0.750000
vt 0.250000 0.750000
vt 0.125000 0.750000
vt 0.125000 0.500000
vt 0.250000 0.500000
vt 0.375000 1.000000
vt 0.250000 1.000000
vt 0.000000 0.500000
vt 0.000000 0.750000
vt 0.125000 1.000000
s 1
f 111/54/1 119/55/1 99/56/1
f 111/54/1 99/56/1 116/57/1
f 101/58/2 102/59/2 103/60/2
f 101/58/2 103/60/2 104/61/2
f 97/54/8 106/58/3 113/61/8
f 97/54/8 113/61/8 120/55/3
f 98/62/4 114/54/4 109/58/4
f 98/62/4 109/58/4 117/63/4
f 118/64/6 110/60/5 107/59/6
f 118/64/6 107/59/6 115/65/5
f 105/58/7 112/63/7 100/66/7
f 105/58/7 100/66/7 108/59/7
v 0.000000 0.375000 -0.375000
v 0.000000 0.000000 -0.375000
v -0.250000 0.000000 -0.375000
v -0.250000 0.375000 -0.375000
v 0.000000 0.375000 -0.125000
v -0.250000 0.375000 -0.125000
v -0.250000 0.000000 -0.125000
v 0.000000 0.000000 -0.125000
v 0.000000 0.375000 -0.125000
v 0.000000 0.375000 -0.125000
v -0.250000 0.375000 -0.125000
v -0.250000 0.375000 -0.125000
v -0.250000 0.000000 -0.125000
v -0.250000 0.000000 -0.125000
v 0.000000 0.375000 -0.375000
v 0.000000 0.375000 -0.375000
v 0.000000 0.000000 -0.125000
v 0.000000 0.000000 -0.125000
v -0.250000 0.375000 -0.375000
v -0.250000 0.375000 -0.375000
v -0.250000 0.000000 -0.375000
v -0.250000 0.000000 -0.375000
v 0.000000 0.000000 -0.375000
v 0.000000 0.000000 -0.375000
vt 0.187500 0.375000
vt 0.187500 0.187500
vt 0.250000 0.187500
vt 0.250000 0.375000
vt 0.125000 0.375000
vt 0.062500 0.375000
vt 0.062500 0.187500
vt 0.125000 0.187500
vt 0.187500 0.500000
vt 0.125000 0.500000
vt 0.000000 0.187500
vt 0.000000 0.375000
vt 0.062500 0.500000
s 1
f 135/67/1 143/68/1 123/69/1
f 135/67/1 123/69/1 140/70/1
f 125/71/2 126/72/2 127/73/2
f 125/71/2 127/73/2 128/74/2
f 121/67/3 130/71/3 137/74/3
f 121/67/3 137/74/3 144/68/3
f 122/75/4 138/67/4 133/71/4
f 122/75/4 133/71/4 141/76/4
f 142/77/5 134/73/6 131/72/5
f 142/77/5 131/72/5 139/78/6
f 129/71/7 136/76/7 124/79/7
f 129/71/7 124/79/7 132/72/7
