# Blender v2.68 (sub 0) OBJ File: ''
# www.blender.org
v 0.102762 0.764964 -0.041756
v 0.077974 0.764619 -0.078865
v 0.111464 0.765085 0.002004
v 0.040860 0.764104 0.107673
v 0.077965 0.764619 0.082880
v 0.102759 0.764964 0.045773
v 0.686653 -0.539543 -0.280749
v 0.742881 -0.538761 0.002005
v 0.526476 -0.541769 -0.520524
v 0.040870 0.764104 -0.103661
v 0.286735 -0.545103 -0.680748
v -0.002898 0.763496 -0.112370
v 0.743347 -0.628910 0.002005
v 0.687119 -0.629692 -0.280749
v 0.526942 -0.631918 -0.520524
v 0.287202 -0.635251 -0.680748
v 0.004398 -0.639182 -0.737025
v -0.278415 -0.643115 -0.680788
v 0.003932 -0.549034 -0.737025
v -0.518178 -0.646448 -0.520599
v -0.278881 -0.552966 -0.680788
v -0.678390 -0.648675 -0.280846
v -0.518644 -0.556299 -0.520599
v -0.734658 -0.649457 0.001969
v -0.678856 -0.558527 -0.280847
v -0.678417 -0.648675 0.284790
v -0.735125 -0.559309 0.001969
v -0.518229 -0.646447 0.524558
v -0.678883 -0.558526 0.284790
v -0.278480 -0.643115 0.684770
v -0.518694 -0.556299 0.524558
v 0.004327 -0.639183 0.741034
v -0.278946 -0.552965 0.684770
v 0.287136 -0.635252 0.684784
v 0.003860 -0.549034 0.741034
v 0.526892 -0.631919 0.524583
v 0.286670 -0.545103 0.684784
v 0.687092 -0.629691 0.284823
v 0.526426 -0.541770 0.524583
v 0.686626 -0.539543 0.284823
v 0.455106 -0.995665 -0.169797
v 0.455086 -0.995665 0.230726
v 0.171848 -0.999603 0.513969
v -0.228708 -1.005170 0.513960
v -0.511934 -1.009109 0.230703
v -0.511914 -1.009108 -0.169867
v -0.228661 -1.005171 -0.453095
v 0.171894 -0.999602 -0.453066
v -0.046667 0.762886 -0.103667
v -0.083773 0.762371 -0.078876
v -0.108568 0.762026 -0.041771
v -0.117276 0.761905 0.001999
v -0.108572 0.762026 0.045768
v -0.083781 0.762371 0.082876
v -0.046677 0.762886 0.107671
v -0.002908 0.763496 0.116379
v 0.077965 0.764619 0.082880
v 0.077965 0.764619 0.082880
v 0.077965 0.764619 0.082880
v 0.102759 0.764964 0.045773
v 0.102759 0.764964 0.045773
v 0.102759 0.764964 0.045773
v 0.040860 0.764104 0.107673
v 0.040860 0.764104 0.107673
v 0.040860 0.764104 0.107673
v 0.040870 0.764104 -0.103661
v 0.040870 0.764104 -0.103661
v 0.040870 0.764104 -0.103661
v -0.002898 0.763496 -0.112370
v -0.002898 0.763496 -0.112370
v -0.002898 0.763496 -0.112370
v 0.526476 -0.541769 -0.520524
v 0.526476 -0.541769 -0.520524
v 0.526476 -0.541769 -0.520524
v 0.526476 -0.541769 -0.520524
v 0.286735 -0.545103 -0.680748
v 0.286735 -0.545103 -0.680748
v 0.286735 -0.545103 -0.680748
v 0.286735 -0.545103 -0.680748
v -0.518694 -0.556299 0.524558
v -0.518694 -0.556299 0.524558
v -0.518694 -0.556299 0.524558
v -0.518694 -0.556299 0.524558
v -0.046677 0.762886 0.107671
v -0.046677 0.762886 0.107671
v -0.046677 0.762886 0.107671
v 0.287136 -0.635252 0.684784
v 0.287136 -0.635252 0.684784
v 0.287136 -0.635252 0.684784
v 0.171848 -0.999603 0.513969
v 0.171848 -0.999603 0.513969
v 0.171848 -0.999603 0.513969
v 0.171848 -0.999603 0.513969
v 0.686653 -0.539543 -0.280749
v 0.686653 -0.539543 -0.280749
v 0.686653 -0.539543 -0.280749
v 0.686653 -0.539543 -0.280749
v 0.286670 -0.545103 0.684784
v 0.286670 -0.545103 0.684784
v 0.286670 -0.545103 0.684784
v 0.286670 -0.545103 0.684784
v 0.102762 0.764964 -0.041756
v 0.102762 0.764964 -0.041756
v 0.102762 0.764964 -0.041756
v 0.077974 0.764619 -0.078865
v 0.077974 0.764619 -0.078865
v 0.077974 0.764619 -0.078865
v -0.678390 -0.648675 -0.280846
v -0.678390 -0.648675 -0.280846
v -0.678390 -0.648675 -0.280846
v -0.511914 -1.009108 -0.169867
v -0.511914 -1.009108 -0.169867
v -0.511914 -1.009108 -0.169867
v -0.511914 -1.009108 -0.169867
v -0.678883 -0.558526 0.284790
v -0.678883 -0.558526 0.284790
v -0.678883 -0.558526 0.284790
v -0.678883 -0.558526 0.284790
v -0.083781 0.762371 0.082876
v -0.083781 0.762371 0.082876
v -0.083781 0.762371 0.082876
v 0.742881 -0.538761 0.002005
v 0.742881 -0.538761 0.002005
v 0.742881 -0.538761 0.002005
v 0.742881 -0.538761 0.002005
v 0.111464 0.765085 0.002004
v 0.111464 0.765085 0.002004
v 0.111464 0.765085 0.002004
v -0.278946 -0.552965 0.684770
v -0.278946 -0.552965 0.684770
v -0.278946 -0.552965 0.684770
v -0.278946 -0.552965 0.684770
v -0.002908 0.763496 0.116379
v -0.002908 0.763496 0.116379
v -0.002908 0.763496 0.116379
v 0.526892 -0.631919 0.524583
v 0.526892 -0.631919 0.524583
v 0.526892 -0.631919 0.524583
v 0.526892 -0.631919 0.524583
v 0.526426 -0.541770 0.524583
v 0.526426 -0.541770 0.524583
v 0.526426 -0.541770 0.524583
v 0.526426 -0.541770 0.524583
v 0.743347 -0.628910 0.002005
v 0.743347 -0.628910 0.002005
v 0.743347 -0.628910 0.002005
v 0.743347 -0.628910 0.002005
v 0.687119 -0.629692 -0.280749
v 0.687119 -0.629692 -0.280749
v 0.687119 -0.629692 -0.280749
v 0.526942 -0.631918 -0.520524
v 0.526942 -0.631918 -0.520524
v 0.526942 -0.631918 -0.520524
v 0.526942 -0.631918 -0.520524
v -0.518178 -0.646448 -0.520599
v -0.518178 -0.646448 -0.520599
v -0.518178 -0.646448 -0.520599
v -0.518178 -0.646448 -0.520599
v -0.518644 -0.556299 -0.520599
v -0.518644 -0.556299 -0.520599
v -0.518644 -0.556299 -0.520599
v -0.518644 -0.556299 -0.520599
v 0.287202 -0.635251 -0.680748
v 0.287202 -0.635251 -0.680748
v 0.287202 -0.635251 -0.680748
v 0.003860 -0.549034 0.741034
v 0.003860 -0.549034 0.741034
v 0.003860 -0.549034 0.741034
v 0.003860 -0.549034 0.741034
v 0.004398 -0.639182 -0.737025
v 0.004398 -0.639182 -0.737025
v 0.004398 -0.639182 -0.737025
v 0.004398 -0.639182 -0.737025
v 0.003932 -0.549034 -0.737025
v 0.003932 -0.549034 -0.737025
v 0.003932 -0.549034 -0.737025
v 0.003932 -0.549034 -0.737025
v 0.686626 -0.539543 0.284823
v 0.686626 -0.539543 0.284823
v 0.686626 -0.539543 0.284823
v 0.686626 -0.539543 0.284823
v -0.046667 0.762886 -0.103667
v -0.046667 0.762886 -0.103667
v -0.046667 0.762886 -0.103667
v -0.278415 -0.643115 -0.680788
v -0.278415 -0.643115 -0.680788
v -0.278415 -0.643115 -0.680788
v -0.678417 -0.648675 0.284790
v -0.678417 -0.648675 0.284790
v -0.678417 -0.648675 0.284790
v -0.511934 -1.009109 0.230703
v -0.511934 -1.009109 0.230703
v -0.511934 -1.009109 0.230703
v -0.511934 -1.009109 0.230703
v -0.734658 -0.649457 0.001969
v -0.734658 -0.649457 0.001969
v -0.734658 -0.649457 0.001969
v -0.734658 -0.649457 0.001969
v -0.518229 -0.646447 0.524558
v -0.518229 -0.646447 0.524558
v -0.518229 -0.646447 0.524558
v -0.518229 -0.646447 0.524558
v -0.678856 -0.558527 -0.280847
v -0.678856 -0.558527 -0.280847
v -0.678856 -0.558527 -0.280847
v -0.678856 -0.558527 -0.280847
v -0.735125 -0.559309 0.001969
v -0.735125 -0.559309 0.001969
v -0.735125 -0.559309 0.001969
v -0.735125 -0.559309 0.001969
v -0.083773 0.762371 -0.078876
v -0.083773 0.762371 -0.078876
v -0.083773 0.762371 -0.078876
v 0.004327 -0.639183 0.741034
v 0.004327 -0.639183 0.741034
v 0.004327 -0.639183 0.741034
v 0.004327 -0.639183 0.741034
v -0.228661 -1.005171 -0.453095
v -0.228661 -1.005171 -0.453095
v -0.228661 -1.005171 -0.453095
v -0.228661 -1.005171 -0.453095
v 0.171894 -0.999602 -0.453066
v 0.171894 -0.999602 -0.453066
v 0.171894 -0.999602 -0.453066
v 0.171894 -0.999602 -0.453066
v -0.278881 -0.552966 -0.680788
v -0.278881 -0.552966 -0.680788
v -0.278881 -0.552966 -0.680788
v -0.278881 -0.552966 -0.680788
v 0.455106 -0.995665 -0.169797
v 0.455106 -0.995665 -0.169797
v 0.455106 -0.995665 -0.169797
v 0.455106 -0.995665 -0.169797
v 0.455086 -0.995665 0.230726
v 0.455086 -0.995665 0.230726
v 0.455086 -0.995665 0.230726
v 0.455086 -0.995665 0.230726
v 0.687092 -0.629691 0.284823
v 0.687092 -0.629691 0.284823
v 0.687092 -0.629691 0.284823
v -0.228708 -1.005170 0.513960
v -0.228708 -1.005170 0.513960
v -0.228708 -1.005170 0.513960
v -0.228708 -1.005170 0.513960
v -0.108568 0.762026 -0.041771
v -0.108568 0.762026 -0.041771
v -0.108568 0.762026 -0.041771
v -0.278480 -0.643115 0.684770
v -0.278480 -0.643115 0.684770
v -0.278480 -0.643115 0.684770
v -0.117276 0.761905 0.001999
v -0.117276 0.761905 0.001999
v -0.117276 0.761905 0.001999
v -0.108572 0.762026 0.045768
v -0.108572 0.762026 0.045768
v -0.108572 0.762026 0.045768
vn -0.013886 0.999878 0.000000
vn -0.013855 0.999878 0.000000
vn 0.885739 0.428938 -0.177313
vn 0.749657 0.428022 -0.504746
vn 0.498489 0.426313 -0.754784
vn 0.171056 0.424116 -0.889279
vn 0.980773 0.005066 -0.195044
vn 0.831477 0.004273 -0.555498
vn 0.555620 0.002869 -0.831416
vn 0.195135 0.001007 -0.980743
vn -0.195013 -0.001007 -0.980773
vn -0.555498 -0.002869 -0.831507
vn -0.831416 -0.004273 -0.555620
vn -0.980743 -0.005066 -0.195135
vn -0.980773 -0.005066 0.195044
vn -0.831446 -0.004273 0.555528
vn -0.555559 -0.002869 0.831446
vn -0.195105 -0.001007 0.980773
vn 0.195044 0.001007 0.980773
vn 0.555528 0.002869 0.831477
vn 0.831446 0.004273 0.555559
vn 0.980743 0.005066 0.195074
vn 0.811090 -0.562639 -0.159734
vn 0.822382 -0.545305 0.162053
vn 0.711936 -0.520920 0.470870
vn 0.488296 -0.492294 0.720542
vn 0.179022 -0.463485 0.867794
vn -0.169378 -0.439436 0.882138
vn -0.498856 -0.424940 0.755333
vn -0.751579 -0.423078 0.506058
vn -0.883145 -0.434462 0.176824
vn -0.872250 -0.456679 -0.174780
vn -0.156743 -0.541124 -0.826197
vn 0.169134 -0.560228 -0.810846
vn 0.461806 -0.570513 -0.679128
vn 0.684896 -0.571276 -0.452223
vn 0.786218 -0.617908 0.000031
vn 0.552019 -0.632679 -0.543107
vn 0.008606 -0.616352 -0.787408
vn -0.850154 -0.526505 -0.000031
vn -0.605914 -0.507126 0.612903
vn 0.007355 -0.530564 0.847591
vn 0.581164 -0.577715 0.573107
vn -0.182470 0.421735 -0.888150
vn -0.508286 0.419538 -0.752068
vn -0.757134 0.417859 -0.502060
vn -0.891659 0.416974 -0.176244
vn -0.891659 0.416974 0.176153
vn -0.757195 0.417859 0.501999
vn -0.508347 0.419538 0.752007
vn -0.182562 0.421735 0.888119
vn 0.170965 0.424116 0.889309
vn 0.498459 0.426313 0.754814
vn 0.885739 0.428938 0.177343
vn 0.749596 0.428022 0.504837
vn 0.013886 -0.999878 0.000000
vn -0.013947 0.999878 0.000092
vn -0.724845 -0.485305 -0.488876
vn -0.471206 -0.515030 -0.715995
vn -0.575060 -0.573840 -0.583087
vn -0.182531 0.421735 0.888119
vn 0.498428 0.426313 0.754845
vn -0.013947 0.999878 -0.000122
s 1
f 1//1 2//1 3//1
f 4//1 5//2 6//1
f 94//3 102//3 8//3
f 103//4 95//4 105//4
f 106//5 73//5 66//5
f 10//6 77//6 12//6
f 13//7 14//7 122//7
f 148//8 15//8 96//8
f 151//9 163//9 74//9
f 16//10 170//10 76//10
f 17//11 18//11 19//11
f 185//12 155//12 21//12
f 20//13 108//13 23//13
f 109//14 197//14 25//14
f 24//15 188//15 207//15
f 189//16 28//16 116//16
f 201//17 249//17 80//17
f 248//18 214//18 129//18
f 32//19 87//19 166//19
f 88//20 136//20 98//20
f 137//21 238//21 140//21
f 38//22 146//22 178//22
f 149//23 144//23 231//23
f 145//24 239//24 235//24
f 240//25 138//25 237//25
f 36//26 34//26 43//26
f 89//27 216//27 92//27
f 215//28 30//28 243//28
f 250//29 199//29 241//29
f 200//30 26//30 45//30
f 190//31 195//31 191//31
f 196//32 22//32 46//32
f 186//33 172//33 218//33
f 171//34 164//34 225//34
f 165//35 153//35 223//35
f 152//36 150//36 41//36
f 230//37 147//37 42//37
f 224//38 154//38 233//38
f 47//39 173//39 48//39
f 193//40 198//40 113//40
f 244//41 202//41 194//41
f 91//42 217//42 242//42
f 236//43 139//43 90//43
f 70//44 174//44 49//44
f 182//45 226//45 212//45
f 211//46 159//46 245//46
f 246//47 203//47 52//47
f 251//48 208//48 255//48
f 254//49 29//49 119//49
f 120//50 31//50 55//50
f 84//51 33//51 56//51
f 134//52 35//52 64//52
f 63//53 37//53 57//53
f 61//54 40//54 127//54
f 58//55 39//55 60//55
f 192//56 111//56 219//56
f 54//1 86//57 133//1
f 157//58 112//58 110//58
f 220//59 156//59 187//59
f 158//60 221//60 114//60
f 104//3 126//3 123//3
f 7//4 72//4 107//4
f 9//5 11//5 68//5
f 78//6 175//6 71//6
f 14//7 97//7 122//7
f 15//8 75//8 96//8
f 163//9 79//9 74//9
f 170//10 176//10 76//10
f 18//11 227//11 19//11
f 155//12 160//12 21//12
f 108//13 204//13 23//13
f 197//14 27//14 25//14
f 188//15 115//15 207//15
f 28//16 81//16 116//16
f 249//17 130//17 80//17
f 214//18 167//18 129//18
f 87//19 99//19 166//19
f 136//20 141//20 98//20
f 238//21 179//21 140//21
f 146//22 124//22 178//22
f 177//44 228//44 184//44
f 229//45 161//45 213//45
f 162//46 206//46 247//46
f 205//47 209//47 252//47
f 210//48 118//48 256//48
f 117//49 83//49 121//49
f 82//50 132//50 85//50
f 131//61 169//61 135//61
f 168//52 100//52 65//52
f 101//62 143//62 59//62
f 181//54 125//54 128//54
f 142//55 180//55 62//55
f 192//56 219//56 222//56
f 44//56 192//56 222//56
f 93//56 44//56 234//56
f 44//56 222//56 232//56
f 234//56 44//56 232//56
f 2//1 6//1 3//1
f 2//1 4//1 6//1
f 54//1 133//1 4//1
f 54//1 4//1 2//1
f 50//1 69//1 183//63
f 54//1 2//1 67//1
f 53//1 54//1 67//1
f 253//2 53//1 51//1
f 53//1 67//1 51//1
f 67//1 69//1 51//1
f 69//1 50//1 51//1
