# Blender v2.68 (sub 0) OBJ File: ''
# www.blender.org
v 0.095196 -0.746252 0.033872
v 0.074675 -0.746078 0.064592
v 0.102400 -0.746313 -0.002354
v 0.043959 -0.745818 0.085119
v 0.007727 -0.745511 0.092329
v -0.028507 -0.745203 0.085124
v -0.059225 -0.744943 0.064601
v -0.079751 -0.744769 0.033884
v -0.086960 -0.744708 -0.002350
v -0.079754 -0.744769 -0.038584
v -0.059231 -0.744943 -0.069303
v -0.028515 -0.745203 -0.089829
v 0.007718 -0.745511 -0.097038
v 0.043951 -0.745818 -0.089831
v 0.095193 -0.746252 -0.038588
v 0.074668 -0.746078 -0.069306
v 0.883600 0.187029 -0.002354
v 0.817564 0.187589 0.329722
v 0.629446 0.189183 0.611323
v 0.347885 0.191570 0.799496
v 0.015750 0.194385 0.865590
v 0.545603 0.514216 -0.270973
v 0.212957 0.517036 -0.603624
v -0.257471 0.521023 -0.603613
v -0.590102 0.523843 -0.270946
v -0.590079 0.523842 0.199499
v -0.257416 0.521023 0.532133
v 0.213011 0.517035 0.532099
v 0.545626 0.514216 0.199417
v 0.884147 0.251584 -0.002354
v 0.818111 0.252144 0.329722
v 0.629993 0.253738 0.611323
v 0.348433 0.256125 0.799496
v 0.016297 0.258940 0.865590
v -0.315849 0.261756 0.799543
v -0.316396 0.197201 0.799543
v -0.597436 0.264143 0.611412
v -0.597983 0.199588 0.611412
v -0.785595 0.265738 0.329837
v -0.786142 0.201183 0.329837
v -0.851678 0.266298 -0.002312
v -0.852226 0.201743 -0.002312
v -0.785626 0.265738 -0.334468
v -0.786174 0.201183 -0.334468
v -0.597495 0.264143 -0.616061
v -0.598042 0.199588 -0.616061
v -0.315925 0.261757 -0.804220
v -0.316473 0.197201 -0.804220
v 0.016214 0.258941 -0.870298
v 0.015666 0.194386 -0.870298
v 0.348356 0.256126 -0.804236
v 0.347808 0.191571 -0.804236
v 0.629934 0.253739 -0.616090
v 0.629387 0.189184 -0.616090
v 0.818079 0.252144 -0.334507
v 0.817532 0.187589 -0.334507
vn -0.008488 -0.999964 -0.000005
vn -0.008472 -0.999964 -0.000005
vn 0.757954 -0.634401 0.151795
vn 0.641785 -0.633413 0.432319
vn 0.427092 -0.631594 0.647057
vn 0.146558 -0.629215 0.763289
vn 0.980759 -0.008313 0.195046
vn 0.831488 -0.007047 0.555498
vn 0.555618 -0.004710 0.831425
vn 0.195157 -0.001654 0.980771
vn -0.195016 0.001653 0.980799
vn -0.555498 0.004709 0.831505
vn -0.831408 0.007047 0.555618
vn -0.980740 0.008314 0.195141
vn -0.980759 0.008313 -0.195046
vn -0.831461 0.007048 -0.555538
vn -0.555577 0.004709 -0.831452
vn -0.195110 0.001654 -0.980780
vn 0.195063 -0.001654 -0.980789
vn 0.555538 -0.004709 -0.831478
vn 0.831435 -0.007048 -0.555578
vn 0.980750 -0.008313 -0.195093
vn 0.654694 0.744816 0.128936
vn 0.670938 0.729629 -0.132225
vn 0.589512 0.707435 -0.389886
vn 0.411286 0.680081 -0.606904
vn 0.153364 0.651120 -0.743318
vn -0.147083 0.625828 -0.765968
vn -0.436667 0.610044 -0.661187
vn -0.658555 0.608014 -0.443423
vn -0.768994 0.620438 -0.153967
vn -0.750050 0.644073 0.150315
vn -0.128221 0.725884 0.675760
vn 0.136733 0.742738 0.655473
vn 0.370929 0.751571 0.545485
vn 0.549858 0.752225 0.363062
vn 0.612966 0.790110 -0.000029
vn 0.426347 0.801420 0.419469
vn 0.006731 0.788885 0.614504
vn -0.701576 0.712595 0.000034
vn -0.505886 0.694424 -0.511717
vn 0.006055 0.716322 -0.697743
vn 0.464707 0.757646 -0.458279
vn -0.157094 -0.626641 0.763310
vn -0.437644 -0.624262 0.647120
vn -0.652368 -0.622443 0.432412
vn -0.768586 -0.621458 0.151871
vn -0.768602 -0.621457 -0.151797
vn -0.652411 -0.622442 -0.432350
vn -0.437705 -0.624262 -0.647079
vn -0.157166 -0.626640 -0.763296
vn 0.146487 -0.629214 -0.763303
vn 0.427026 -0.631592 -0.647101
vn 0.757949 -0.634397 -0.151833
vn 0.641744 -0.633412 -0.432381
vn 0.008476 0.999964 -0.000000
vn -0.008474 -0.999964 0.000006
vn -0.613058 0.673196 0.413482
vn -0.391561 0.701913 0.594977
vn -0.460947 0.754376 0.467380
vn 0.641786 -0.633413 0.432318
vn 0.427089 -0.631593 0.647059
vn 0.146559 -0.629215 0.763288
vn 0.980759 -0.008312 0.195046
vn 0.831488 -0.007048 0.555498
vn 0.555618 -0.004709 0.831425
vn -0.555498 0.004708 0.831505
vn -0.831408 0.007048 0.555618
vn -0.980740 0.008313 0.195141
vn -0.980759 0.008314 -0.195046
vn -0.831461 0.007047 -0.555538
vn 0.195063 -0.001653 -0.980789
vn 0.831435 -0.007047 -0.555578
vn 0.980749 -0.008313 -0.195093
vn -0.437641 -0.624263 0.647121
vn -0.652369 -0.622443 0.432412
vn -0.768587 -0.621458 0.151869
vn -0.768602 -0.621458 -0.151795
vn -0.652410 -0.622442 -0.432350
vn -0.437703 -0.624262 -0.647080
vn -0.157168 -0.626640 -0.763296
vn 0.146486 -0.629214 -0.763303
vn 0.427027 -0.631592 -0.647101
vn 0.757949 -0.634397 -0.151832
vn -0.008471 -0.999964 0.000002
vn -0.008478 -0.999964 0.000001
vn -0.008476 -0.999964 -0.000001
vn -0.008476 -0.999964 0.000000
vn -0.008473 -0.999964 -0.000009
vn -0.008474 -0.999964 -0.000002
vn -0.008468 -0.999964 0.000000
vn -0.008477 -0.999964 0.000000
vn -0.008478 -0.999964 0.000003
s off
f 1//1 2//1 3//1
f 14//2 16//2 15//2
f 18//3 1//3 17//3
f 1//4 18//4 2//4
f 2//5 19//5 4//5
f 4//6 20//6 5//6
f 30//7 31//7 17//7
f 31//8 32//8 18//8
f 32//9 33//9 19//9
f 33//10 34//10 20//10
f 34//11 35//11 21//11
f 35//12 37//12 36//12
f 37//13 39//13 38//13
f 39//14 41//14 40//14
f 41//15 43//15 42//15
f 43//16 45//16 44//16
f 45//17 47//17 46//17
f 47//18 49//18 48//18
f 49//19 51//19 50//19
f 51//20 53//20 52//20
f 53//21 55//21 54//21
f 55//22 30//22 56//22
f 31//23 30//23 29//23
f 30//24 55//24 22//24
f 55//25 53//25 22//25
f 53//26 51//26 23//26
f 51//27 49//27 23//27
f 49//28 47//28 24//28
f 47//29 45//29 24//29
f 45//30 43//30 25//30
f 43//31 41//31 25//31
f 41//32 39//32 26//32
f 35//33 34//33 27//33
f 34//34 33//34 28//34
f 33//35 32//35 28//35
f 32//36 31//36 29//36
f 29//37 30//37 22//37
f 28//38 32//38 29//38
f 27//39 34//39 28//39
f 25//40 41//40 26//40
f 24//41 45//41 25//41
f 23//42 49//42 24//42
f 22//43 53//43 23//43
f 5//44 21//44 6//44
f 6//45 36//45 7//45
f 7//46 38//46 8//46
f 8//47 40//47 9//47
f 9//48 42//48 10//48
f 10//49 44//49 11//49
f 11//50 46//50 12//50
f 12//51 48//51 13//51
f 13//52 50//52 14//52
f 14//53 52//53 16//53
f 15//54 56//54 3//54
f 16//55 54//55 15//55
f 25//56 26//56 27//56
f 11//57 12//57 13//57
f 37//58 26//58 39//58
f 27//59 37//59 35//59
f 37//60 27//60 26//60
f 1//3 3//3 17//3
f 18//61 19//61 2//61
f 19//62 20//62 4//62
f 20//63 21//63 5//63
f 31//64 18//64 17//64
f 32//65 19//65 18//65
f 33//66 20//66 19//66
f 34//10 21//10 20//10
f 35//11 36//11 21//11
f 37//67 38//67 36//67
f 39//68 40//68 38//68
f 41//69 42//69 40//69
f 43//70 44//70 42//70
f 45//71 46//71 44//71
f 47//17 48//17 46//17
f 49//18 50//18 48//18
f 51//72 52//72 50//72
f 53//20 54//20 52//20
f 55//73 56//73 54//73
f 30//74 17//74 56//74
f 21//44 36//44 6//44
f 36//75 38//75 7//75
f 38//76 40//76 8//76
f 40//77 42//77 9//77
f 42//78 44//78 10//78
f 44//79 46//79 11//79
f 46//80 48//80 12//80
f 48//81 50//81 13//81
f 50//82 52//82 14//82
f 52//83 54//83 16//83
f 56//84 17//84 3//84
f 54//55 56//55 15//55
f 25//56 27//56 28//56
f 24//56 25//56 28//56
f 23//56 24//56 22//56
f 24//56 28//56 29//56
f 22//56 24//56 29//56
f 2//85 15//85 3//85
f 2//86 14//86 15//86
f 11//87 13//87 14//87
f 11//88 14//88 2//88
f 7//89 5//89 6//89
f 11//90 2//90 4//90
f 10//87 11//87 4//87
f 9//91 10//91 8//91
f 10//92 4//92 8//92
f 4//93 5//93 8//93
f 5//93 7//93 8//93
